<svg viewBox="0 0 398.99 392.59" xmlns="http://www.w3.org/2000/svg" xmlns:xlink="http://www.w3.org/1999/xlink"><linearGradient id="a" gradientUnits="userSpaceOnUse" x1="262.54" x2="-39.95" y1="164.25" y2="538.13"><stop offset=".01"/><stop offset=".13" stop-opacity=".69"/><stop offset="1" stop-opacity="0"/></linearGradient><linearGradient id="b" x1="304.05" x2="49.4" xlink:href="#a" y1="189.07" y2="503.83"/><linearGradient id="c" x1="187.73" x2="226.24" xlink:href="#a" y1="87.06" y2="147.81"/><linearGradient id="d" x1="235.09" x2="246.36" xlink:href="#a" y1="105.05" y2="142.62"/><linearGradient id="e" x1="192.58" x2="215.12" xlink:href="#a" y1="121.14" y2="297.27"/><linearGradient id="f" x1="351.64" x2="312.89" xlink:href="#a" y1="150.51" y2="37.78"/><path d="m411.71 167.26c-5.79 45.42-29.59 86.41-55.15 124.39-30.21 44.9-68.08 90.59-121 101.94-19.27 4.14-39.23 3.33-58.87 1.66-21-1.78-42.34-4.63-61.5-13.47-30.1-13.87-51-40.62-68.72-67.68s-41.65-55.32-29.15-90.31c4.94-13.81 15.9-24.4 25.22-35.72 28-34 42.34-77 65.42-114.45s60.8-71.81 104.76-69.48c21.57 1.14 41.56 11 62.26 17.15 17.13 5.09 35.16 7.78 52.42 12.31 12.14 3.19 23.9 7.27 34.67 13.76a91.14 91.14 0 0 1 19.48 15.75c25.01 26.55 34.87 67.17 30.16 104.15z" fill="#68e1fd" opacity=".18" transform="translate(-13.86 -4.03)"/><path d="m62.39 315.97v-128.23l274.06-19.17v128.22l-143.23 66.55z" fill="#68e1fd"/><path d="m336.45 168.57v128.22l-143.23 66.54-.26-.09-130.58-47.27v-128.23l130.58-9.13z" fill="url(#a)"/><path d="m336.45 168.57v128.22l-143.23 66.54-.26-.09v-184.63z" fill="url(#b)"/><path d="m62.39 187.74 142.78-62.3 131.28 43.13-143.23 66.54z" fill="#68e1fd"/><g transform="translate(-13.86 -4.03)"><path d="m381.55 63.11-.16.12c-11.39 7.82-24.07 13.62-36.54 19.61-22.47 10.77-43.08 21.66-64.8 33.84l-.11.07c-1.9 6-7.52 9.93-13.2 12.51s-11.84 4.32-16.91 8a26.58 26.58 0 0 0 -7.81 8.86 15 15 0 0 1 -2.27 3.57 11.56 11.56 0 0 1 -4.34 2.3c-8 2.88-16.75 5.78-25 3.44a40.68 40.68 0 0 1 -10-5 12.7 12.7 0 0 1 -4.35-3.77 10.9 10.9 0 0 1 -1.31-4.52c-1.53-13.57 5.06-27.05 14.49-36.93s21.48-16.78 33.34-23.54c5.91-3.37 13.21-4.65 19.86-6.1 25.56-5.57 45.93-24.1 64.96-41.97 12 3.15 23.67 7.19 34.35 13.57l.32.19a91.14 91.14 0 0 1 19.48 15.75z" fill="#f3bd8f"/><path d="m230.55 114.36c-6-.56-11.73 2.13-17 5.08-4 2.28-8 4.8-11.17 8.25s-5.3 7.95-5.11 12.6a6.77 6.77 0 0 0 1.52 4.4c2.28 2.46 6.58 1.49 8.95-.87s3.5-5.67 5.16-8.58a25.19 25.19 0 0 1 7.8-8.4c2.65-1.79 3.11-1.68 4.78-4.18.36-.47 5.26-8.28 5.07-8.3z" fill="url(#c)"/><path d="m241 120.39c5.79-1.41 11.51-3.39 17.47-3.57 1.73-.06 3.74.19 4.67 1.66a4.09 4.09 0 0 1 .55 2c.2 5.13-4.43 9-8.52 12.08a233 233 0 0 0 -19.41 16.51 54.59 54.59 0 0 1 -15-17.51c-.91-1.69-3.86-5.26-3.89-7.12 0-2.53 4-1.45 6-1.53a92.52 92.52 0 0 0 18.13-2.52z" fill="url(#d)"/></g><path d="m164.94 185.09 56.67-24.9 12.21 3.29-55.89 24.9z" fill="url(#e)"/><path d="m176.05 184.62 11.74-68.11 44.16 3.76-4.7 43.21z" fill="#fff"/><path d="m223.25 130.84a6.67 6.67 0 0 0 2.35 5.61c2.41 1.82 6 1.11 8.46-.6s4.3-4.22 6.49-6.32c7.37-7.06 18.86-9.08 25.16-17.12a3.08 3.08 0 0 0 .85-2c-.08-1-1-1.71-1.91-2.21-7.79-4.4-19.58-4.33-27.51 0-6.53 3.61-13.63 15.48-13.89 22.64z" fill="#f3bd8f" transform="translate(-13.86 -4.03)"/><path d="m381.55 63.11-.16.12c-11.39 7.82-24.07 13.62-36.54 19.61-22.47 10.77-43.08 21.66-64.8 33.84-.74-5.22 3.29-10.15 7.17-14a234.88 234.88 0 0 1 45.64-34.94c8-4.67 16.36-8.91 23.4-15 2-1.7 3.47-4.11 5.49-5.65l.32.19a91.14 91.14 0 0 1 19.48 15.83z" fill="url(#f)" transform="translate(-13.86 -4.03)"/></svg>